<svg xmlns="http://www.w3.org/2000/svg" xmlns:xlink="http://www.w3.org/1999/xlink" width="500" zoomAndPan="magnify" viewBox="0 0 375 374.999991" height="500" preserveAspectRatio="xMidYMid meet" version="1.0"><defs><g/><clipPath id="5ecef0137a"><path d="M 112.570312 112.023438 L 262.570312 112.023438 L 262.570312 262.773438 L 112.570312 262.773438 Z M 112.570312 112.023438 " clip-rule="nonzero"/></clipPath></defs><g clip-path="url(#5ecef0137a)"><path fill="#dbae86" d="M 212.011719 112.140625 L 212.011719 114.230469 L 220.625 114.230469 C 225.570312 114.230469 229.390625 115.351562 232.042969 117.644531 C 234.691406 119.9375 236.070312 123.609375 236.070312 128.808594 L 236.070312 230.746094 L 157.320312 112.140625 L 112.570312 112.140625 L 112.570312 114.230469 L 120.574219 114.230469 C 125.519531 114.230469 129.339844 115.351562 132.09375 117.542969 C 134.84375 119.734375 136.222656 123.25 136.222656 128.195312 L 136.222656 133.039062 L 138.3125 133.039062 L 138.3125 124.578125 L 230.15625 262.855469 L 238.160156 262.855469 L 238.160156 129.011719 C 238.160156 123.660156 239.535156 119.886719 242.285156 117.644531 C 245.039062 115.402344 248.863281 114.230469 253.804688 114.230469 L 262.417969 114.230469 L 262.417969 112.140625 Z M 142.335938 257.351562 C 139.6875 255.105469 138.3125 251.335938 138.3125 245.984375 L 136.222656 245.984375 C 136.222656 251.335938 134.84375 255.105469 132.09375 257.351562 C 129.339844 259.59375 125.519531 260.714844 120.574219 260.714844 L 112.570312 260.714844 L 112.570312 262.855469 L 163.234375 262.855469 L 163.234375 260.714844 L 153.753906 260.714844 C 148.808594 260.714844 144.988281 259.59375 142.335938 257.351562 Z M 142.335938 257.351562 " fill-opacity="1" fill-rule="nonzero"/></g><g fill="#dbae86" fill-opacity="1"><g transform="translate(141.830724, 250.317467)"><g><path d="M -5.539062 -34.792969 C -5.539062 -34.722656 -5.523438 -34.683594 -5.511719 -34.628906 C -5.511719 -34.628906 -5.511719 -34.613281 -5.511719 -34.601562 L -4.921875 -33.292969 C -4.789062 -33.019531 -4.664062 -32.734375 -4.527344 -32.433594 C -3.230469 -29.597656 -1.648438 -26.105469 -1.648438 -24.25 C -1.648438 -23.171875 -2.046875 -22.652344 -2.863281 -22.652344 C -5.523438 -22.652344 -8.90625 -26.089844 -11.988281 -29.199219 C -14.347656 -31.601562 -16.585938 -33.878906 -18.097656 -33.878906 C -18.917969 -33.878906 -19.421875 -33.292969 -19.421875 -32.351562 C -19.421875 -28.722656 -12.015625 -19.488281 -5.59375 -12.847656 C -5.441406 -12.683594 -5.292969 -12.535156 -5.140625 -12.382812 C -5.277344 -12.507812 -5.441406 -12.628906 -5.59375 -12.765625 C -7.527344 -14.402344 -9.300781 -16.027344 -10.882812 -17.5 C -13.953125 -20.363281 -16.421875 -22.652344 -18.015625 -22.652344 C -19.066406 -22.652344 -19.558594 -21.957031 -19.558594 -20.511719 C -19.558594 -17.445312 -17.199219 -11.550781 -13.53125 -8.320312 C -13.460938 -8.238281 -13.324219 -8.195312 -13.203125 -8.195312 C -12.941406 -8.195312 -12.710938 -8.429688 -12.710938 -8.6875 C -12.710938 -8.839844 -12.765625 -8.972656 -12.886719 -9.070312 C -16.378906 -12.125 -18.574219 -17.636719 -18.574219 -20.511719 C -18.574219 -21.441406 -18.441406 -21.671875 -18.015625 -21.671875 C -16.816406 -21.671875 -14.632812 -19.652344 -11.550781 -16.789062 C -8.429688 -13.882812 -4.472656 -10.214844 0.0664062 -7.378906 C 0.3125 -7.214844 0.558594 -7.253906 0.75 -7.515625 L 0.765625 -7.542969 C 0.925781 -7.761719 0.898438 -8.007812 0.683594 -8.210938 C -5.753906 -13.652344 -18.441406 -27.933594 -18.441406 -32.351562 C -18.441406 -32.761719 -18.34375 -32.898438 -18.097656 -32.898438 C -16.992188 -32.898438 -15.042969 -30.917969 -12.683594 -28.519531 C -9.601562 -25.394531 -5.917969 -21.671875 -2.863281 -21.671875 C -1.5 -21.671875 -0.667969 -22.640625 -0.667969 -24.25 C -0.667969 -26.308594 -2.347656 -29.992188 -3.640625 -32.828125 C -3.722656 -33.03125 -3.820312 -33.222656 -3.902344 -33.414062 C -4.160156 -33.988281 -4.40625 -34.519531 -4.597656 -34.984375 C -4.679688 -35.160156 -4.855469 -35.285156 -5.046875 -35.285156 C -5.304688 -35.285156 -5.539062 -35.050781 -5.539062 -34.792969 Z M -5.539062 -34.792969 "/></g></g></g><g fill="#dbae86" fill-opacity="1"><g transform="translate(141.830724, 216.936564)"><g><path d="M -5.539062 -14.074219 C -5.539062 -13.964844 -5.511719 -13.871094 -5.441406 -13.789062 C -2.347656 -9.546875 -0.667969 -3.832031 -0.667969 -2.058594 C -0.667969 -0.683594 -1.035156 0 -1.71875 0 C -2.386719 0 -3.328125 -0.492188 -4.226562 -1.308594 C -4.050781 -1.71875 -3.984375 -2.167969 -3.984375 -2.824219 C -3.984375 -4.078125 -4.992188 -5.523438 -5.890625 -5.523438 C -6.546875 -5.523438 -6.984375 -5.019531 -6.984375 -4.253906 C -6.984375 -2.128906 -3.859375 0.980469 -1.71875 0.980469 C -0.421875 0.980469 0.3125 -0.121094 0.3125 -2.058594 C 0.3125 -3.96875 -1.445312 -9.984375 -4.652344 -14.363281 C -4.734375 -14.484375 -4.894531 -14.566406 -5.046875 -14.566406 C -5.320312 -14.566406 -5.539062 -14.347656 -5.539062 -14.074219 Z M -5.890625 -4.542969 C -5.59375 -4.542969 -4.964844 -3.847656 -4.964844 -2.824219 C -4.964844 -2.535156 -4.976562 -2.320312 -5.003906 -2.128906 C -5.632812 -2.90625 -6 -3.683594 -6 -4.253906 C -6 -4.5 -5.960938 -4.542969 -5.890625 -4.542969 Z M -5.890625 -4.542969 "/></g></g></g><g fill="#dbae86" fill-opacity="1"><g transform="translate(141.830724, 204.255098)"><g><path d="M -5.539062 -14.074219 C -5.539062 -13.964844 -5.511719 -13.871094 -5.441406 -13.789062 C -2.347656 -9.546875 -0.667969 -3.832031 -0.667969 -2.058594 C -0.667969 -0.683594 -1.035156 0 -1.71875 0 C -2.386719 0 -3.328125 -0.492188 -4.226562 -1.308594 C -4.050781 -1.71875 -3.984375 -2.167969 -3.984375 -2.824219 C -3.984375 -4.078125 -4.992188 -5.523438 -5.890625 -5.523438 C -6.546875 -5.523438 -6.984375 -5.019531 -6.984375 -4.253906 C -6.984375 -2.128906 -3.859375 0.980469 -1.71875 0.980469 C -0.421875 0.980469 0.3125 -0.121094 0.3125 -2.058594 C 0.3125 -3.96875 -1.445312 -9.984375 -4.652344 -14.363281 C -4.734375 -14.484375 -4.894531 -14.566406 -5.046875 -14.566406 C -5.320312 -14.566406 -5.539062 -14.347656 -5.539062 -14.074219 Z M -5.890625 -4.542969 C -5.59375 -4.542969 -4.964844 -3.847656 -4.964844 -2.824219 C -4.964844 -2.535156 -4.976562 -2.320312 -5.003906 -2.128906 C -5.632812 -2.90625 -6 -3.683594 -6 -4.253906 C -6 -4.5 -5.960938 -4.542969 -5.890625 -4.542969 Z M -5.890625 -4.542969 "/></g></g></g><g fill="#dbae86" fill-opacity="1"><g transform="translate(141.830724, 191.573632)"><g><path d="M -5.539062 -16.378906 C -5.539062 -16.285156 -5.511719 -16.1875 -5.457031 -16.105469 C -4.0625 -13.953125 -2.265625 -10.339844 -2.265625 -7.324219 C -2.265625 -6.65625 -2.414062 -6.136719 -2.699219 -5.78125 C -4.597656 -7.203125 -6.027344 -7.964844 -6.792969 -7.964844 C -7.296875 -7.964844 -7.664062 -7.582031 -7.664062 -7.050781 C -7.664062 -5.753906 -5.644531 -4.296875 -3.886719 -4.296875 C -3.449219 -4.296875 -3.070312 -4.378906 -2.714844 -4.542969 C 1.1875 -1.488281 4.910156 2.425781 4.910156 3.613281 C 4.910156 3.710938 4.855469 3.832031 4.679688 3.832031 C 2.671875 3.832031 -3.574219 -0.722656 -5.113281 -2.113281 C -5.210938 -2.195312 -5.320312 -2.238281 -5.441406 -2.238281 C -5.714844 -2.238281 -5.933594 -2.019531 -5.933594 -1.746094 C -5.933594 -1.609375 -5.878906 -1.472656 -5.769531 -1.378906 C -4.199219 0.0390625 2.375 4.816406 4.707031 4.816406 C 5.46875 4.816406 5.890625 4.324219 5.890625 3.464844 C 5.890625 1.949219 1.703125 -2.332031 -1.921875 -5.183594 C -1.5 -5.714844 -1.28125 -6.449219 -1.28125 -7.324219 C -1.28125 -10.570312 -3.207031 -14.429688 -4.625 -16.640625 C -4.71875 -16.777344 -4.882812 -16.871094 -5.046875 -16.871094 C -5.320312 -16.871094 -5.539062 -16.652344 -5.539062 -16.378906 Z M -6.328125 -6.902344 C -5.753906 -6.683594 -4.828125 -6.125 -3.683594 -5.292969 C -3.75 -5.277344 -3.820312 -5.277344 -3.886719 -5.277344 C -4.855469 -5.277344 -6.152344 -6 -6.558594 -6.640625 C -6.792969 -7.011719 -6.628906 -7.011719 -6.328125 -6.902344 Z M -6.328125 -6.902344 "/></g></g></g><g fill="#dbae86" fill-opacity="1"><g transform="translate(141.830724, 176.601311)"><g><path d="M -5.539062 -19.421875 C -5.539062 -19.3125 -5.511719 -19.21875 -5.441406 -19.136719 C -2.851562 -15.671875 -0.804688 -10.230469 -0.804688 -8.320312 C -0.804688 -7.335938 -1.089844 -6.941406 -1.785156 -6.941406 C -2.933594 -6.941406 -4.351562 -7.910156 -5.386719 -8.632812 C -6.015625 -9.070312 -6.425781 -9.34375 -6.738281 -9.34375 C -7.066406 -9.34375 -7.308594 -9.082031 -7.308594 -8.757812 C -7.308594 -8.457031 -7.023438 -7.992188 -5.90625 -6.449219 C -6.503906 -6.082031 -6.75 -5.59375 -6.75 -4.71875 C -6.75 -2.5625 -3.207031 3.109375 -1.035156 3.109375 C -0.367188 3.109375 0.0664062 2.617188 0.0664062 1.867188 C 0.0664062 0.09375 -2.78125 -3.804688 -4.664062 -6.410156 C -4.800781 -6.601562 -4.9375 -6.792969 -5.074219 -6.96875 C -5.238281 -7.1875 -5.140625 -7.28125 -4.910156 -7.148438 C -3.929688 -6.53125 -2.824219 -5.960938 -1.785156 -5.960938 C -0.519531 -5.960938 0.175781 -6.792969 0.175781 -8.320312 C 0.175781 -10.527344 -2.167969 -16.242188 -4.636719 -19.695312 C -4.734375 -19.832031 -4.882812 -19.914062 -5.046875 -19.914062 C -5.304688 -19.914062 -5.539062 -19.679688 -5.539062 -19.421875 Z M -5.332031 -5.644531 C -2.851562 -2.222656 -0.914062 0.558594 -0.914062 1.867188 C -0.914062 2.03125 -0.980469 2.128906 -1.144531 2.128906 C -2.414062 2.128906 -5.769531 -2.6875 -5.769531 -4.71875 C -5.769531 -5.277344 -5.6875 -5.441406 -5.332031 -5.644531 Z M -5.332031 -5.644531 "/></g></g></g><g fill="#dbae86" fill-opacity="1"><g transform="translate(141.830724, 158.574536)"><g><path d="M 0.109375 1.730469 C 0.109375 1.542969 -0.0546875 1.253906 -0.640625 0.464844 C -0.722656 0.355469 -0.804688 0.230469 -0.898438 0.109375 C -2.632812 -2.292969 -6.136719 -7.160156 -6.136719 -9 C -6.136719 -9.152344 -6.042969 -9.21875 -5.917969 -9.21875 C -5.671875 -9.21875 -4.761719 -9 -3.847656 -8.785156 C -3.042969 -8.59375 -2.238281 -8.402344 -1.855469 -8.402344 C -1.023438 -8.402344 -0.519531 -8.972656 -0.519531 -9.914062 C -0.519531 -12.179688 -2.113281 -16.066406 -4.636719 -19.898438 C -4.71875 -20.050781 -4.882812 -20.128906 -5.046875 -20.128906 C -5.320312 -20.128906 -5.539062 -19.914062 -5.539062 -19.640625 C -5.539062 -19.542969 -5.511719 -19.449219 -5.457031 -19.367188 C -3.054688 -15.710938 -1.5 -11.976562 -1.5 -9.914062 C -1.5 -9.507812 -1.597656 -9.382812 -1.855469 -9.382812 C -2.128906 -9.382812 -2.824219 -9.546875 -3.613281 -9.738281 C -4.527344 -9.957031 -5.550781 -10.203125 -6.109375 -10.203125 C -6.738281 -10.203125 -7.121094 -9.765625 -7.121094 -9.054688 C -7.121094 -7.515625 -5.59375 -4.746094 -2.140625 0.0664062 C -2.003906 0.273438 -2.113281 0.328125 -2.265625 0.21875 C -3.859375 -0.941406 -6.929688 -3.546875 -8.785156 -6.015625 C -8.878906 -6.136719 -9.027344 -6.207031 -9.179688 -6.207031 C -9.453125 -6.207031 -9.667969 -5.988281 -9.667969 -5.714844 C -9.667969 -5.605469 -9.628906 -5.496094 -9.574219 -5.414062 C -6.832031 -1.8125 -1.527344 2.15625 -0.683594 2.332031 C -0.246094 2.425781 0.109375 2.15625 0.109375 1.730469 Z M 0.109375 1.730469 "/></g></g></g></svg>